<svg width="192" height="192" viewBox="0 0 192 192" fill="none" xmlns="http://www.w3.org/2000/svg">
  <rect width="192" height="192" rx="40" fill="#4f46e5"/>
  <path d="M96 40C65.07 40 40 65.07 40 96C40 126.93 65.07 152 96 152C126.93 152 152 126.93 152 96C152 65.07 126.93 40 96 40ZM96 68C102.63 68 108 73.37 108 80C108 86.63 102.63 92 96 92C89.37 92 84 86.63 84 80C84 73.37 89.37 68 96 68ZM96 140C80.4 140 66.72 131.6 60 119.2C60.24 107.6 84 101.2 96 101.2C107.88 101.2 131.76 107.6 132 119.2C125.28 131.6 111.6 140 96 140Z" fill="white"/>
</svg>
